Coordinates
version=1
nRows=11
nColumns=36
inDegrees=yes

Units are S.I. units (second, meters, Newtons, ...)
If the header above contains a line with 'inDegrees', this indicates whether rotational values are in degrees (yes) or radians (no).

endheader
time	pelvis_tilt	pelvis_list	pelvis_rotation	pelvis_tx	pelvis_ty	pelvis_tz	hip_flexion_r	hip_adduction_r	hip_rotation_r	knee_angle_r	knee_angle_r_beta	ankle_angle_r	subtalar_angle_r	mtp_angle_r	hip_flexion_l	hip_adduction_l	hip_rotation_l	knee_angle_l	knee_angle_l_beta	ankle_angle_l	subtalar_angle_l	mtp_angle_l	lumbar_extension	lumbar_bending	lumbar_rotation	arm_flex_r	arm_add_r	arm_rot_r	elbow_flex_r	pro_sup_r	arm_flex_l	arm_add_l	arm_rot_l	elbow_flex_l	pro_sup_l
      0.00000000	      5.20044584	      0.92014874	      3.95072133	      0.86398276	      0.98918752	      0.05968262	     -5.35530293	     -8.01198967	      0.83532218	      2.18496192	      0.03813478	      3.71135671	     -9.35434946	     -5.94338877	     -6.47979007	     -7.78848062	      0.55693079	      4.12637198	      0.07201878	      7.55292866	     -9.28793525	     -5.94338877	     -9.82308992	     -0.20798776	      2.01220957	     39.18584674	     12.60716354	     59.41122481	    123.41316513	    109.22059982	     50.53602207	     22.14735559	     68.09062556	    117.77190507	    103.04755444
      0.01666670	      2.01626829	     -0.76866574	      2.78187941	      0.86803144	      0.98328885	      0.05967049	     -1.61164261	     -6.85664715	      2.46625972	      2.36491718	      0.04127559	      5.07192299	     -8.97983539	     -6.45205956	     -3.28493166	     -9.52092819	      0.44946085	      3.34946927	      0.05845927	      7.33521143	     -9.49077813	     -6.45205956	     -5.30139647	      1.92849995	      2.49426576	     39.16586736	     13.18221856	     61.24407031	    125.88332172	    108.04322110	     51.45325424	     22.42694977	     68.60513329	    120.46280102	    100.09115840
      0.03333330	      0.98998886	     -1.28026613	      2.15436728	      0.86844329	      0.98159759	      0.05995715	     -0.58896133	     -6.62148730	      2.80201921	      1.73389809	      0.03026223	      4.72371682	     -9.60915754	     -7.07103897	     -2.55085420	    -10.28375406	     -0.31260264	      2.72951690	      0.04763906	      7.41405817	     -8.42545827	     -7.07103897	     -4.20997685	      2.41496664	      3.76436192	     38.47790817	     12.88104533	     62.57116043	    127.09377694	    108.67712453	     51.40929256	     23.24369595	     69.20804782	    121.89164774	     99.20903144
      0.05000000	      0.68903826	     -1.42891056	      1.85948164	      0.86872512	      0.97871554	      0.06005419	     -0.21272817	     -6.60821657	      2.98282802	      1.52297391	      0.02658091	      4.99945630	     -9.65453563	     -7.25817633	     -2.78770709	    -10.57444816	     -1.06606025	      1.71957223	      0.03001220	      7.20503873	     -7.91712670	     -7.25817633	     -3.91236644	      2.34611988	      4.45097218	     37.95893454	     12.65233398	     63.59604220	    127.33659883	    107.33060782	     52.20254496	     23.87517537	     69.51723013	    121.36145934	     97.48080345
      0.06666670	      0.36165636	     -1.64647327	      1.68148497	      0.86829480	      0.97759138	      0.06038145	      0.20627007	     -6.40161619	      3.21215387	      1.41933364	      0.02477205	      4.96618580	    -10.19648806	     -7.37625285	     -2.71604048	    -10.91194426	     -1.25356084	      1.25465747	      0.02189790	      7.32335023	     -7.58572532	     -7.37625285	     -3.44444069	      2.68731917	      5.04281219	     37.40334652	     12.40493983	     64.34471790	    126.91191100	    106.06861758	     52.58768696	     24.21943368	     70.02997485	    120.70809200	     94.49101650
      0.08333330	      0.12981842	     -1.67147690	      1.53939687	      0.86842667	      0.97770434	      0.05989281	      0.46411631	     -6.38071319	      3.40357801	      1.35149521	      0.02358804	      5.01904665	    -10.29311414	     -7.43773185	     -2.68023252	    -10.95067633	     -1.38603265	      1.04494452	      0.01823772	      7.28248201	     -7.26600862	     -7.43773185	     -2.94582400	      2.76516681	      5.45413010	     36.91547548	     12.39551937	     64.68447798	    125.95381851	    104.12955667	     52.58452125	     24.45273422	     70.61720505	    120.31391302	     91.09293547
      0.10000000	     -0.09089193	     -1.63463836	      1.44031855	      0.86368033	      0.97395804	      0.05714272	      0.84830062	     -6.50936902	      3.47862434	      1.37087506	      0.02392628	      5.20263094	    -10.37947213	     -7.45042949	     -2.39415683	    -10.85523288	     -1.12208029	      1.05325439	      0.01838276	      7.26600614	     -7.55270105	     -7.45042949	     -2.68222378	      2.91718609	      5.38006653	     37.17126346	     12.48043292	     64.55628589	    125.10306113	    102.57145417	     53.48460745	     24.58080513	     70.36238354	    119.56377213	     88.06607351
      0.11666670	     -0.27062788	     -1.64906958	      1.45047835	      0.86407205	      0.97202419	      0.05697176	      1.11516981	     -6.53741751	      3.54642596	      1.41067633	      0.02462095	      5.19758603	    -10.52236276	     -7.46631152	     -2.11897191	    -10.80829939	     -0.81642063	      1.10446438	      0.01927654	      7.15186837	     -7.82924183	     -7.46631152	     -2.48764669	      3.05691370	      5.38021428	     37.57316072	     12.59091747	     64.18452448	    124.59359959	    100.81211035	     53.85408824	     24.46766734	     70.05196741	    119.24033988	     84.06624135
      0.13333330	     -0.38375091	     -1.65274820	      1.22597537	      0.85917153	      0.97452421	      0.05985523	      1.54675818	     -6.52864995	      3.71533305	      1.63585246	      0.02855101	      5.25882828	    -10.44650991	     -7.46647195	     -1.77702817	    -10.77902126	     -0.93224910	      1.38099004	      0.02410282	      7.04451054	     -7.88991682	     -7.46647195	     -2.77818768	      3.08213003	      5.52253823	     38.03761521	     12.59359992	     63.81578982	    124.40345646	    100.79377513	     54.11305846	     24.14184484	     69.81535258	    119.01648715	     83.96469760
      0.15000000	     -0.65915004	     -1.62860623	      0.84357221	      0.85999032	      0.97478877	      0.06005535	      2.17604775	     -6.51217137	      4.18451207	      1.98451515	      0.03463632	      5.27245582	    -10.85169028	     -7.48225382	     -1.17601169	    -10.77348216	     -1.21405189	      1.86622306	      0.03257174	      6.91686069	     -8.24083619	     -7.48225382	     -2.68650767	      3.10549920	      5.85426960	     38.38854935	     12.72958574	     63.72745290	    124.06866311	     96.20624765	     54.08438504	     23.94001732	     70.04486842	    119.05145094	     77.19898119
      0.16666670	     -0.82450167	     -1.58731289	      0.68770835	      0.85996323	      0.97256218	      0.05975993	      2.69381313	     -6.51863415	      3.77267031	      2.52691610	      0.04410301	      5.74025451	    -10.14928339	     -7.48800623	     -0.56403316	    -10.74187138	     -1.40819745	      2.50733675	      0.04376128	      6.80778251	     -8.44278745	     -7.48800623	     -2.86252178	      3.04979330	      5.99850499	     38.76076509	     12.88563926	     63.27151462	    123.97079947	     99.87917631	     54.23875054	     23.76411696	     69.75112217	    119.16760660	     75.41184287
